# xmcd
#
# Track frame offsets:
#	150
#	3150
#	21993
#	33544
#	48075
#	50475
#	68250
#	80931
#	93628
#	107291
#	121130
#	136011
#	161435
#	173900
#	175270
#	188475
#	195587
#
# Disc length: 2782 seconds
#
# Revision: 1
# Processed by: cddbd v1.5.1PL2 Copyright (c) Steve Scherf et al.
# Submitted via: audiograbber 1.83.01
#
DISCID=cc0adc11
DTITLE=GILDA MONTANS E MEIRE GENARO - SANFONIAS
DYEAR=1900
DGENRE=
TTITLE0=VINHETA
TTITLE1=VOU VIVENDO
TTITLE2=ASA BRANCA
TTITLE3=DE LEVE
TTITLE4=VINHETA 2
TTITLE5=CHOVENDO NA ROSEIRA
TTITLE6=TICI TICO NO FUBÁ
TTITLE7=GILDA
TTITLE8=NA BAIXA DO SAPATEIRO
TTITLE9=FOLCLOREANDO
TTITLE10=FRANCESINHA
TTITLE11=XOTE
TTITLE12=APANHEITE CAVAQUINHO
TTITLE13=VINHETA 3
TTITLE14=MULHER RENDEIRA
TTITLE15=NAZARETHIANA N-2
TTITLE16=O SORRISO DE SAMANTA
EXTD=
EXTT0=
EXTT1=
EXTT2=
EXTT3=
EXTT4=
EXTT5=
EXTT6=
EXTT7=
EXTT8=
EXTT9=
EXTT10=
EXTT11=
EXTT12=
EXTT13=
EXTT14=
EXTT15=
EXTT16=
PLAYORDER=
